<?xml version="1.0" standalone="no"?>
<!DOCTYPE svg PUBLIC "-//W3C//DTD SVG 20010904//EN"
 "http://www.w3.org/TR/2001/REC-SVG-20010904/DTD/svg10.dtd">
<svg version="1.0" xmlns="http://www.w3.org/2000/svg"
 width="512.000000pt" height="512.000000pt" viewBox="0 0 512.000000 512.000000"
 preserveAspectRatio="xMidYMid meet">

<g transform="translate(0.000000,512.000000) scale(0.100000,-0.100000)"
fill="#000000" stroke="none">
<path d="M3100 4954 l-1055 -163 -283 -1 c-196 0 -290 -4 -305 -12 -37 -20
-551 -350 -569 -366 -17 -14 -18 -79 -18 -1089 0 -590 -2 -1073 -5 -1073 -2 0
-176 92 -386 205 -404 217 -432 228 -463 183 -13 -19 -16 -60 -16 -243 0 -161
3 -226 13 -238 6 -10 199 -118 427 -241 l415 -223 3 -137 3 -137 -63 34 c-377
209 -704 377 -733 377 -61 0 -65 -16 -65 -265 0 -161 3 -226 13 -238 6 -10
199 -118 427 -240 l415 -223 5 -413 5 -413 24 -19 c23 -19 64 -19 1672 -19
1636 0 1649 0 1669 20 19 19 20 33 20 415 l0 395 410 0 411 0 24 25 c25 24 25
26 25 208 0 179 -1 184 -23 205 -23 22 -26 22 -430 22 l-407 0 0 185 0 185
408 0 409 0 21 23 c21 22 22 32 22 208 0 181 -1 186 -23 207 -23 22 -26 22
-430 22 l-407 0 -2 996 -3 996 -24 19 c-23 18 -54 19 -1063 19 l-1039 0 3 77
3 77 1030 157 c567 87 1041 164 1054 171 37 19 43 62 39 266 -3 179 -4 184
-27 203 -13 10 -35 19 -50 18 -14 0 -501 -75 -1081 -165z m1010 -1634 l0 -690
-133 0 c-142 0 -177 -10 -177 -51 0 -18 -8 -19 -120 -19 -100 0 -120 3 -120
15 0 8 -9 24 -20 35 -18 18 -33 20 -153 20 -142 0 -177 -10 -177 -51 0 -18 -8
-19 -120 -19 -100 0 -120 3 -120 15 0 8 -9 24 -20 35 -20 20 -33 20 -980 20
l-960 0 0 690 0 690 1550 0 1550 0 0 -690z m-3605 -1039 l350 -188 3 -122 3
-121 -93 50 c-51 27 -213 114 -360 193 l-267 142 -1 118 c0 64 3 117 8 117 4
0 165 -85 357 -189z m4475 -391 l0 -90 -360 0 -360 0 0 90 0 90 360 0 360 0 0
-90z m-870 -575 l0 -345 -379 0 -378 0 -5 118 c-7 161 -39 226 -131 271 -42
21 -56 21 -657 21 -601 0 -615 0 -657 -21 -92 -45 -124 -110 -131 -271 l-5
-118 -378 0 -379 0 0 345 0 345 1550 0 1550 0 0 -345z m-3605 136 l350 -188 3
-122 3 -121 -93 50 c-51 28 -213 114 -360 193 l-268 142 0 118 c0 64 3 117 8
117 4 0 165 -85 357 -189z m2670 -236 c24 -23 25 -31 25 -135 l0 -110 -640 0
-640 0 0 110 c0 104 1 112 25 135 l24 25 591 0 591 0 24 -25z m1805 -155 l0
-90 -360 0 -360 0 0 90 0 90 360 0 360 0 0 -90z"/>
<path d="M1209 3811 l-24 -19 0 -472 0 -472 24 -19 c22 -18 45 -19 501 -19
l479 0 20 26 c21 26 21 37 21 484 0 447 0 458 -21 484 l-20 26 -479 0 c-456 0
-479 -1 -501 -19z m881 -491 l0 -370 -380 0 -380 0 0 370 0 370 380 0 380 0 0
-370z"/>
<path d="M2432 3807 c-21 -22 -22 -33 -22 -185 0 -216 -14 -202 213 -202 94 0
177 4 183 8 28 18 34 56 34 202 0 147 -1 152 -25 175 -24 25 -27 25 -193 25
-163 0 -169 -1 -190 -23z m268 -182 l0 -65 -75 0 -75 0 0 65 0 65 75 0 75 0 0
-65z"/>
<path d="M2982 3807 c-21 -22 -22 -33 -22 -183 0 -219 -16 -204 210 -204 l179
0 21 27 c20 26 21 37 18 186 -4 209 9 197 -217 197 -162 0 -168 -1 -189 -23z
m268 -182 l0 -65 -75 0 -75 0 0 65 0 65 75 0 75 0 0 -65z"/>
<path d="M3530 3810 c-18 -18 -20 -33 -20 -188 0 -151 2 -171 18 -185 16 -15
45 -17 194 -17 228 0 213 -15 213 207 0 216 14 203 -216 203 -156 0 -171 -2
-189 -20z m260 -185 l0 -65 -70 0 -70 0 0 65 0 65 70 0 70 0 0 -65z"/>
<path d="M2430 3200 c-18 -18 -20 -33 -20 -183 0 -219 -12 -207 214 -207 164
0 167 0 191 25 24 23 25 28 25 178 0 141 -2 157 -21 181 l-20 26 -175 0 c-161
0 -176 -2 -194 -20z m270 -185 l0 -65 -75 0 -75 0 0 65 0 65 75 0 75 0 0 -65z"/>
<path d="M2980 3200 c-18 -18 -20 -33 -20 -183 0 -219 -12 -207 212 -207 225
0 212 -12 216 197 3 149 2 160 -18 186 l-21 27 -175 0 c-161 0 -176 -2 -194
-20z m270 -185 l0 -65 -75 0 -75 0 0 65 0 65 75 0 75 0 0 -65z"/>
<path d="M3527 3202 c-14 -16 -17 -44 -17 -185 0 -221 -14 -207 209 -207 230
0 216 -13 216 203 0 222 15 207 -215 207 -159 0 -179 -2 -193 -18z m263 -187
l0 -65 -70 0 -70 0 0 65 0 65 70 0 70 0 0 -65z"/>
</g>
</svg>
